<svg width="26" height="26" viewBox="0 0 26 26" fill="none" xmlns="http://www.w3.org/2000/svg">
<g filter="url(#filter0_d)">
<path fill-rule="evenodd" clip-rule="evenodd" d="M22 5.47826C22 2.45739 19.7385 0 16.96 0C15.3976 0 13.9518 0.774 13 2.09661C12.0482 0.774 10.6024 0 9.04 0C6.26152 0 4 2.45739 4 5.47826C4 5.57765 4.00432 5.67626 4.01152 5.77409C4.00432 5.80461 4 5.8367 4 5.86957C4 13.1752 12.2411 18 13 18C13.7589 18 22 13.1752 22 5.86957C22 5.83748 21.9957 5.80696 21.9885 5.77722C21.995 5.67861 22 5.57922 22 5.47826Z" fill="black"/>
<path d="M12.5942 2.38867L13 2.95259L13.4058 2.38867C14.2702 1.18757 15.5693 0.5 16.96 0.5C19.424 0.5 21.5 2.69351 21.5 5.47826C21.5 5.56323 21.4958 5.65015 21.4896 5.74443L21.4845 5.82064L21.5 5.88442C21.4944 9.33834 19.5422 12.2447 17.434 14.3179C16.3834 15.3511 15.3095 16.1616 14.4556 16.7116C14.0285 16.9868 13.6613 17.1936 13.3844 17.3295C13.2453 17.3978 13.1351 17.4451 13.0552 17.4742C13.0316 17.4827 13.0134 17.4887 13 17.4928C12.9866 17.4887 12.9684 17.4827 12.9448 17.4742C12.8649 17.4451 12.7547 17.3978 12.6156 17.3295C12.3387 17.1936 11.9715 16.9868 11.5444 16.7116C10.6905 16.1616 9.61662 15.3511 8.56601 14.3179C6.45711 12.244 4.50433 9.33646 4.50001 5.88107L4.51581 5.81406L4.51017 5.73739C4.5037 5.6494 4.5 5.56324 4.5 5.47826C4.5 2.69351 6.57605 0.5 9.04 0.5C10.4307 0.5 11.7298 1.18757 12.5942 2.38867Z" stroke="black"/>
</g>
<defs>
<filter id="filter0_d" x="0" y="0" width="26" height="26" filterUnits="userSpaceOnUse" color-interpolation-filters="sRGB">
<feFlood flood-opacity="0" result="BackgroundImageFix"/>
<feColorMatrix in="SourceAlpha" type="matrix" values="0 0 0 0 0 0 0 0 0 0 0 0 0 0 0 0 0 0 127 0"/>
<feOffset dy="4"/>
<feGaussianBlur stdDeviation="2"/>
<feColorMatrix type="matrix" values="0 0 0 0 0 0 0 0 0 0 0 0 0 0 0 0 0 0 0.25 0"/>
<feBlend mode="normal" in2="BackgroundImageFix" result="effect1_dropShadow"/>
<feBlend mode="normal" in="SourceGraphic" in2="effect1_dropShadow" result="shape"/>
</filter>
</defs>
</svg>
