<svg width="66" height="42" viewBox="0 0 66 42" fill="none" xmlns="http://www.w3.org/2000/svg">
<path d="M60.9579 17.8868H4.97615C3.98633 17.8868 3.03705 18.2804 2.33715 18.981C1.63724 19.6816 1.24403 20.6318 1.24403 21.6226V36.566C1.24403 37.5568 1.63724 38.5071 2.33715 39.2077C3.03705 39.9083 3.98633 40.3019 4.97615 40.3019H23.0147C25.4593 40.3019 26.4731 38.7017 27.8478 36.0617C28.9426 33.9634 30.1866 31.5849 32.967 31.5849C35.6542 31.5849 36.892 33.926 37.9867 35.9994C39.4049 38.6768 40.4313 40.3019 42.9193 40.3019H60.9579C61.9477 40.3019 62.897 39.9083 63.5969 39.2077C64.2968 38.5071 64.69 37.5568 64.69 36.566V21.6226C64.69 20.6318 64.2968 19.6816 63.5969 18.981C62.897 18.2804 61.9477 17.8868 60.9579 17.8868Z" fill="white"/>
<path d="M1.24403 19.1321L4.97615 17.8868H13.6844L20.5266 5.43396L23.6367 2.9434L17.4165 1.69811L1.24403 19.1321ZM48.5175 1.69811L42.2973 2.9434L45.4074 5.43396L52.2496 17.8868H60.9579L64.69 19.1321L48.5175 1.69811Z" fill="#EEEEEE"/>
<path d="M57.2258 24.7359H41.0533C40.8883 24.7359 40.7301 24.8015 40.6134 24.9182C40.4968 25.035 40.4313 25.1934 40.4313 25.3585V29.0943C40.4313 30.2503 40.89 31.3589 41.7066 32.1763C42.5231 32.9936 43.6306 33.4528 44.7854 33.4528H57.2258C57.3908 33.4528 57.549 33.3872 57.6656 33.2705C57.7823 33.1537 57.8478 32.9953 57.8478 32.8302V25.3585C57.8478 25.1934 57.7823 25.035 57.6656 24.9182C57.549 24.8015 57.3908 24.7359 57.2258 24.7359Z" fill="#FF7575"/>
<path d="M24.8808 24.7359H8.70828C8.54331 24.7359 8.38509 24.8015 8.26844 24.9182C8.15179 25.035 8.08626 25.1934 8.08626 25.3585V32.8302C8.08626 32.9953 8.15179 33.1537 8.26844 33.2705C8.38509 33.3872 8.54331 33.4528 8.70828 33.4528H21.1487C22.3035 33.4528 23.4109 32.9936 24.2275 32.1763C25.0441 31.3589 25.5028 30.2503 25.5028 29.0943V25.3585C25.5028 25.1934 25.4373 25.035 25.3206 24.9182C25.204 24.8015 25.0458 24.7359 24.8808 24.7359Z" fill="#70CBF6"/>
<g opacity="0.1">
<path opacity="0.1" d="M44.7854 36.566H57.2258C57.5557 36.566 57.8722 36.4348 58.1055 36.2013C58.3388 35.9678 58.4698 35.651 58.4698 35.3208V32.8302C58.4698 33.1605 58.3388 33.4772 58.1055 33.7107C57.8722 33.9443 57.5557 34.0755 57.2258 34.0755H44.7854C43.4657 34.0755 42.1999 33.5507 41.2667 32.6165C40.3335 31.6824 39.8093 30.4154 39.8093 29.0943V31.5849C39.8093 32.906 40.3335 34.173 41.2667 35.1071C42.1999 36.0412 43.4657 36.566 44.7854 36.566ZM57.2258 25.3585H41.0533V26.6038H57.2258V25.3585ZM21.1487 34.0755H8.70828C8.37834 34.0755 8.06191 33.9443 7.82861 33.7107C7.59531 33.4772 7.46424 33.1605 7.46424 32.8302V35.3208C7.46424 35.651 7.59531 35.9678 7.82861 36.2013C8.06191 36.4348 8.37834 36.566 8.70828 36.566H21.1487C22.4684 36.566 23.7341 36.0412 24.6673 35.1071C25.6006 34.173 26.1248 32.906 26.1248 31.5849V29.0943C26.1248 30.4154 25.6006 31.6824 24.6673 32.6165C23.7341 33.5507 22.4684 34.0755 21.1487 34.0755ZM8.70828 26.6038H24.8808V25.3585H8.70828V26.6038ZM60.9579 37.8113H42.9194C41.1964 37.8113 40.4313 36.703 39.0877 34.1689C37.9432 32.027 36.4006 29.0943 32.967 29.0943C29.434 29.0943 27.8789 32.0706 26.7468 34.2374C25.4219 36.7777 24.7128 37.8113 23.0147 37.8113H4.97616C4.31628 37.8113 3.68343 37.5489 3.21682 37.0818C2.75022 36.6148 2.48808 35.9813 2.48808 35.3208V36.566C2.48808 37.2266 2.75022 37.8601 3.21682 38.3271C3.68343 38.7942 4.31628 39.0566 4.97616 39.0566H23.0147C24.7128 39.0566 25.4219 38.023 26.7468 35.4826C27.8789 33.3158 29.434 30.3396 32.967 30.3396C36.4006 30.3396 37.9432 33.2723 39.0877 35.4141C40.4313 37.9483 41.1964 39.0566 42.9194 39.0566H60.9579C61.6178 39.0566 62.2507 38.7942 62.7173 38.3271C63.1839 37.8601 63.446 37.2266 63.446 36.566V35.3208C63.446 35.9813 63.1839 36.6148 62.7173 37.0818C62.2507 37.5489 61.6178 37.8113 60.9579 37.8113ZM14.3065 15.3962H4.35414V16.6415H14.3065V15.3962ZM61.5799 15.3962H51.6276V16.6415H61.5799V15.3962Z" fill="black"/>
</g>
<path d="M24.8808 24.1132H8.70827C8.37833 24.1132 8.06191 24.2444 7.8286 24.4779C7.5953 24.7115 7.46423 25.0282 7.46423 25.3585V32.8302C7.46423 33.1605 7.5953 33.4772 7.8286 33.7107C8.06191 33.9443 8.37833 34.0755 8.70827 34.0755H21.1487C22.4684 34.0755 23.7341 33.5507 24.6673 32.6165C25.6005 31.6824 26.1248 30.4154 26.1248 29.0943V25.3585C26.1248 25.0282 25.9938 24.7115 25.7605 24.4779C25.5271 24.2444 25.2107 24.1132 24.8808 24.1132ZM24.8808 29.0943C24.8808 30.0851 24.4876 31.0354 23.7877 31.736C23.0878 32.4366 22.1385 32.8302 21.1487 32.8302H8.70827V25.3585H24.8808V29.0943ZM57.2258 24.1132H41.0533C40.7233 24.1132 40.4069 24.2444 40.1736 24.4779C39.9403 24.7115 39.8092 25.0282 39.8092 25.3585V29.0943C39.8092 30.4154 40.3335 31.6824 41.2667 32.6165C42.1999 33.5507 43.4656 34.0755 44.7854 34.0755H57.2258C57.5557 34.0755 57.8722 33.9443 58.1055 33.7107C58.3388 33.4772 58.4698 33.1605 58.4698 32.8302V25.3585C58.4698 25.0282 58.3388 24.7115 58.1055 24.4779C57.8722 24.2444 57.5557 24.1132 57.2258 24.1132ZM57.2258 32.8302H44.7854C43.7956 32.8302 42.8463 32.4366 42.1464 31.736C41.4465 31.0354 41.0533 30.0851 41.0533 29.0943V25.3585H57.2258V32.8302Z" fill="#171C1F"/>
<path d="M65.9341 21.6226V19.1321C65.933 18.8175 65.813 18.5149 65.5982 18.2853L49.4257 0.851321C49.2815 0.696188 49.1001 0.580459 48.8987 0.515085C48.6974 0.449711 48.4827 0.436856 48.2749 0.477737L42.0547 1.72302C41.8232 1.77043 41.61 1.88285 41.44 2.04715C41.27 2.21144 41.1503 2.4208 41.0948 2.65073C41.0393 2.88066 41.0504 3.12165 41.1268 3.34549C41.2032 3.56934 41.3416 3.76678 41.526 3.91472L44.4433 6.24962L50.1472 16.6415H15.7869L21.497 6.24962L24.4143 3.91472C24.6065 3.76821 24.7519 3.56886 24.8328 3.341C24.9137 3.11314 24.9266 2.86664 24.8698 2.63158C24.8131 2.39652 24.6892 2.18308 24.5133 2.01731C24.3374 1.85155 24.1171 1.74064 23.8793 1.69811L17.6591 0.45283C17.4514 0.41195 17.2367 0.424805 17.0353 0.490179C16.834 0.555553 16.6526 0.671283 16.5084 0.826415L0.33589 18.2604C0.115151 18.4963 -0.00529883 18.8089 -1.55007e-07 19.1321V22.8679V36.566C-1.55007e-07 37.8871 0.524272 39.1541 1.45748 40.0882C2.39069 41.0224 3.6564 41.5472 4.97616 41.5472H23.0147C29.2349 41.5472 28.5383 32.8302 32.967 32.8302C37.2465 32.8302 36.6992 41.5472 42.9193 41.5472H60.9579C62.2777 41.5472 63.5434 41.0224 64.4766 40.0882C65.4098 39.1541 65.9341 37.8871 65.9341 36.566V21.6226ZM46.496 4.81132C46.4178 4.66754 46.3121 4.54059 46.1849 4.43774L45.1586 3.64076L48.0759 3.05547L60.6842 16.6415H52.9836L46.496 4.81132ZM5.24984 16.6415L17.852 3.05547L20.7692 3.64076L19.7429 4.46264C19.6157 4.5655 19.51 4.69245 19.4319 4.83623L12.9504 16.6415H5.24984ZM63.446 36.566C63.446 37.2266 63.1839 37.8601 62.7173 38.3271C62.2506 38.7942 61.6178 39.0566 60.9579 39.0566H42.9193C41.1964 39.0566 40.4313 37.9483 39.0877 35.4142C37.9432 33.2723 36.4006 30.3396 32.967 30.3396C29.434 30.3396 27.8789 33.3159 26.7468 35.4826C25.4219 38.023 24.7128 39.0566 23.0147 39.0566H4.97616C4.31628 39.0566 3.68342 38.7942 3.21682 38.3271C2.75021 37.8601 2.48808 37.2266 2.48808 36.566V21.6226C2.48808 20.9621 2.75021 20.3286 3.21682 19.8615C3.68342 19.3945 4.31628 19.1321 4.97616 19.1321H60.9579C61.6178 19.1321 62.2506 19.3945 62.7173 19.8615C63.1839 20.3286 63.446 20.9621 63.446 21.6226V36.566Z" fill="#171C1F"/>
</svg>
